<svg width="215" height="35" viewBox="0 0 215 35" fill="none" xmlns="http://www.w3.org/2000/svg">
<g clip-path="url(#clip0_6_5)">
<path d="M209.066 0.816001C209.29 1.168 209.434 1.616 209.498 2.16C209.658 3.28 209.722 4.432 209.69 5.616C209.69 6.768 209.706 7.904 209.738 9.024C209.738 10.336 209.738 11.632 209.738 12.912C209.77 14.192 209.786 15.488 209.786 16.8V20.88H211.85C212.202 20.88 212.57 20.928 212.954 21.024C213.338 21.088 213.69 21.216 214.01 21.408C214.33 21.6 214.602 21.84 214.826 22.128C215.05 22.416 215.178 22.768 215.21 23.184C215.21 24.208 214.89 24.912 214.25 25.296C213.61 25.648 212.842 25.856 211.946 25.92C211.882 25.92 211.738 25.936 211.514 25.968C211.322 25.968 211.098 25.968 210.842 25.968C210.586 25.968 210.346 25.968 210.122 25.968C209.93 25.968 209.818 25.936 209.786 25.872V29.136C209.786 29.488 209.786 29.888 209.786 30.336C209.786 30.784 209.754 31.232 209.69 31.68C209.626 32.096 209.498 32.496 209.306 32.88C209.146 33.264 208.89 33.568 208.538 33.792C208.378 33.888 208.17 33.968 207.914 34.032C207.69 34.064 207.434 34.096 207.146 34.128C206.858 34.16 206.57 34.176 206.282 34.176C206.026 34.144 205.802 34.096 205.61 34.032C205.034 33.84 204.666 33.44 204.506 32.832C204.346 32.192 204.234 31.6 204.17 31.056C204.17 30.96 204.17 30.656 204.17 30.144C204.17 29.6 204.17 29.04 204.17 28.464C204.17 27.856 204.154 27.312 204.122 26.832C204.09 26.352 204.042 26.112 203.978 26.112H195.53C194.602 26.112 193.626 26.096 192.602 26.064C191.578 26.032 190.698 25.744 189.962 25.2C189.386 24.784 189.05 24.32 188.954 23.808C188.858 23.264 188.89 22.736 189.05 22.224C189.242 21.68 189.514 21.152 189.866 20.64C190.218 20.128 190.554 19.664 190.874 19.248C192.09 17.616 193.258 15.952 194.378 14.256C195.53 12.56 196.682 10.88 197.834 9.216C198.474 8.352 199.13 7.52 199.802 6.72C200.506 5.92 201.162 5.088 201.77 4.224C202.218 3.552 202.698 2.864 203.21 2.16C203.754 1.456 204.426 0.912 205.226 0.527999C205.994 0.176 206.73 0 207.434 0C208.138 0 208.682 0.272 209.066 0.816001ZM204.314 9.456L196.346 20.688H204.314V9.456Z" fill="white"/>
<path d="M181.1 16.608C182.028 17.216 182.812 17.936 183.452 18.768C184.124 19.568 184.652 20.56 185.036 21.744C185.452 23.056 185.66 24.384 185.66 25.728C185.691 27.04 185.451 28.272 184.939 29.424C184.459 30.544 183.676 31.536 182.588 32.4C181.532 33.232 180.139 33.824 178.411 34.176C177.483 34.4 176.396 34.576 175.148 34.704C173.9 34.832 172.78 34.896 171.788 34.896C170.54 34.928 169.244 34.928 167.9 34.896C166.588 34.896 165.308 34.768 164.06 34.512C163.516 34.352 163.115 34.08 162.859 33.696C162.635 33.28 162.476 32.816 162.38 32.304C162.252 32.016 162.188 31.728 162.188 31.44V4.176C162.188 3.28 162.363 2.592 162.715 2.112C163.099 1.6 163.596 1.232 164.204 1.008C164.812 0.752002 165.5 0.608002 166.268 0.576003C167.036 0.512002 167.835 0.480001 168.667 0.480001C169.307 0.480001 169.948 0.480001 170.588 0.480001C171.26 0.448001 171.932 0.448001 172.604 0.480001C173.66 0.512001 174.748 0.608 175.868 0.768C177.02 0.896 178.108 1.152 179.132 1.536C179.612 1.696 180.123 1.92 180.667 2.208C181.211 2.464 181.644 2.784 181.964 3.168C182.988 4.096 183.739 5.184 184.219 6.432C184.731 7.648 184.955 8.896 184.891 10.176C184.827 11.424 184.476 12.624 183.836 13.776C183.228 14.928 182.316 15.872 181.1 16.608ZM172.7 29.328C173.692 29.264 174.699 29.152 175.723 28.992C176.747 28.832 177.452 28.528 177.836 28.08C178.252 27.568 178.54 26.976 178.7 26.304C178.892 25.6 178.94 24.896 178.844 24.192C178.78 23.456 178.571 22.768 178.219 22.128C177.899 21.456 177.468 20.928 176.924 20.544C176.188 19.968 175.34 19.6 174.38 19.44C173.42 19.248 172.476 19.152 171.548 19.152C171.1 19.152 170.683 19.168 170.299 19.2C169.947 19.2 169.628 19.248 169.34 19.344C169.084 19.408 168.892 19.552 168.764 19.776C168.636 20 168.572 20.336 168.572 20.784C168.636 21.616 168.636 22.448 168.572 23.28C168.508 24.112 168.476 24.912 168.476 25.68C168.476 26.128 168.46 26.624 168.428 27.168C168.428 27.68 168.604 28.112 168.956 28.464C169.308 28.816 169.82 29.056 170.492 29.184C171.164 29.312 171.9 29.36 172.7 29.328ZM173.66 6.288C172.668 6.256 171.835 6.24 171.163 6.24C170.523 6.208 170.012 6.256 169.628 6.384C169.276 6.48 169.019 6.72 168.859 7.104C168.731 7.456 168.683 8 168.715 8.736C168.715 9.344 168.699 9.952 168.667 10.56C168.667 11.136 168.667 11.712 168.667 12.288C168.667 12.928 168.876 13.408 169.292 13.728C169.708 14.016 170.219 14.192 170.827 14.256C171.467 14.32 172.124 14.32 172.796 14.256C173.5 14.192 174.108 14.112 174.62 14.016C175.772 13.824 176.652 13.44 177.26 12.864C177.9 12.256 178.267 11.376 178.363 10.224C178.491 8.784 178.108 7.792 177.212 7.248C176.348 6.672 175.163 6.352 173.66 6.288Z" fill="white"/>
<path d="M142.42 6.096L142.324 13.632H144.244C145.556 13.6 146.724 13.584 147.748 13.584C148.772 13.584 149.908 13.6 151.156 13.632H151.396C151.78 13.632 152.148 13.648 152.5 13.68C152.884 13.68 153.252 13.68 153.604 13.68C153.988 13.712 154.356 13.776 154.708 13.872C155.06 13.936 155.412 14.016 155.764 14.112C156.308 14.304 156.756 14.592 157.108 14.976C157.428 15.392 157.588 15.856 157.588 16.368C157.588 16.528 157.588 16.72 157.588 16.944C157.588 17.136 157.556 17.312 157.492 17.472C157.428 17.824 157.22 18.144 156.868 18.432C156.708 18.656 156.404 18.816 155.956 18.912C155.54 19.04 155.124 19.12 154.708 19.152C154.26 19.248 153.812 19.296 153.364 19.296H151.108L142.228 19.344L142.132 28.752L151.684 28.848H153.94C154.196 28.848 154.436 28.848 154.66 28.848C154.884 28.848 155.092 28.864 155.284 28.896C155.54 28.96 155.764 29.008 155.956 29.04C156.18 29.04 156.388 29.072 156.58 29.136C156.964 29.264 157.284 29.44 157.54 29.664C157.86 29.984 158.068 30.32 158.164 30.672C158.196 30.832 158.212 31.008 158.212 31.2C158.244 31.36 158.244 31.536 158.212 31.728C158.212 32.24 158.052 32.704 157.732 33.12C157.348 33.568 156.9 33.856 156.388 33.984C155.716 34.272 154.98 34.416 154.18 34.416C153.828 34.448 153.46 34.464 153.076 34.464C152.692 34.464 152.324 34.48 151.972 34.512H151.684C149.188 34.576 146.596 34.576 143.908 34.512C143.268 34.512 142.756 34.496 142.372 34.464C141.988 34.464 141.636 34.464 141.316 34.464C141.028 34.464 140.724 34.464 140.404 34.464C140.084 34.464 139.668 34.464 139.156 34.464C138.42 34.528 137.812 34.4 137.332 34.08C136.98 33.856 136.708 33.552 136.516 33.168C136.42 33.072 136.372 32.976 136.372 32.88C136.34 32.816 136.308 32.768 136.276 32.736C136.244 32.704 136.212 32.656 136.18 32.592C136.116 32.432 136.068 32.272 136.036 32.112C136.004 31.92 135.988 31.744 135.988 31.584C135.956 31.424 135.924 31.264 135.892 31.104C135.892 30.944 135.876 30.784 135.844 30.624V29.856C135.844 29.728 135.844 29.6 135.844 29.472C135.876 29.344 135.892 29.216 135.892 29.088V25.344L135.988 18.432V12.048C135.988 10.896 135.988 9.872 135.988 8.976C136.02 8.08 136.052 7.104 136.084 6.048V5.808C136.116 5.456 136.132 5.136 136.132 4.848C136.164 4.528 136.18 4.208 136.18 3.888C136.212 3.248 136.388 2.624 136.708 2.016C136.836 1.76 136.964 1.536 137.092 1.344C137.252 1.152 137.46 0.991998 137.716 0.863997C138.196 0.575997 138.692 0.431997 139.204 0.431997C139.46 0.431997 139.652 0.447997 139.78 0.479997V0.431997C140.356 0.431997 140.82 0.431997 141.172 0.431997C141.524 0.431997 141.86 0.431997 142.18 0.431997C142.532 0.431997 142.9 0.431997 143.284 0.431997C143.668 0.399998 144.196 0.383998 144.868 0.383998C146.148 0.351998 147.364 0.335999 148.516 0.335999C149.668 0.335999 150.852 0.351998 152.068 0.383998H152.26C152.612 0.415998 152.98 0.431997 153.364 0.431997C153.748 0.431997 154.116 0.447997 154.468 0.479997C154.82 0.479997 155.172 0.527997 155.524 0.623998C155.876 0.687997 156.228 0.783997 156.58 0.911997C157.124 1.072 157.572 1.344 157.924 1.728C158.212 2.176 158.356 2.624 158.356 3.072C158.356 3.264 158.356 3.456 158.356 3.648C158.356 3.808 158.324 3.968 158.26 4.128C158.228 4.448 158.036 4.784 157.684 5.136C157.556 5.2 157.412 5.28 157.252 5.376C157.124 5.472 156.964 5.552 156.772 5.616C156.58 5.68 156.372 5.728 156.148 5.76C155.956 5.76 155.764 5.776 155.572 5.808C155.316 5.872 155.076 5.904 154.852 5.904C154.66 5.904 154.436 5.904 154.18 5.904H152.02L142.42 5.952V6.096Z" fill="white"/>
<path d="M131.866 2.256C131.994 2.864 131.994 3.504 131.866 4.176C131.802 4.496 131.738 4.816 131.674 5.136C131.642 5.424 131.594 5.728 131.53 6.048L131.482 6.24C131.034 8.224 130.522 10.32 129.946 12.528C129.402 14.704 128.906 16.768 128.458 18.72C128.074 20.32 127.674 22.08 127.258 24C126.842 25.92 126.41 27.68 125.962 29.28C125.802 29.824 125.626 30.368 125.434 30.912C125.274 31.456 125.066 32 124.81 32.544C124.586 33.024 124.314 33.456 123.994 33.84C123.706 34.192 123.37 34.448 122.986 34.608C122.602 34.8 122.186 34.864 121.738 34.8C121.322 34.768 120.858 34.576 120.346 34.224C119.578 33.68 119.002 32.928 118.618 31.968C118.266 31.008 117.898 30.128 117.514 29.328C117.386 29.104 117.194 28.608 116.938 27.84C116.682 27.072 116.41 26.24 116.122 25.344C115.834 24.416 115.546 23.536 115.258 22.704C115.002 21.84 114.778 21.2 114.586 20.784C114.298 21.488 114.01 22.288 113.722 23.184C113.434 24.08 113.162 24.96 112.906 25.824C112.65 26.688 112.41 27.472 112.186 28.176C111.994 28.848 111.85 29.344 111.754 29.664C111.498 30.304 111.21 31.008 110.89 31.776C110.602 32.544 110.234 33.2 109.786 33.744C109.37 34.288 108.858 34.64 108.25 34.8C107.642 34.992 106.922 34.816 106.09 34.272C105.45 33.888 105.002 33.344 104.746 32.64C104.586 32.192 104.426 31.76 104.266 31.344C104.106 30.928 103.978 30.496 103.882 30.048L102.922 26.448L100.954 18.72C100.698 17.728 100.442 16.72 100.186 15.696C99.9618 14.64 99.6898 13.552 99.3698 12.432C99.2098 11.888 99.0658 11.36 98.9378 10.848C98.8418 10.304 98.7298 9.728 98.6018 9.12C98.5058 8.48 98.3778 7.76 98.2178 6.96C98.0898 6.16 97.9298 5.232 97.7378 4.176C97.6738 3.824 97.6257 3.504 97.5938 3.216C97.5938 2.896 97.6258 2.576 97.6898 2.256C97.7538 1.776 97.9778 1.36 98.3618 1.008C98.5218 0.848001 98.7138 0.72 98.9378 0.624002C99.1618 0.528001 99.4018 0.448001 99.6578 0.384002C100.042 0.256001 100.442 0.192001 100.858 0.192001C101.242 0.192001 101.642 0.320002 102.058 0.576002C102.346 0.736002 102.57 0.944001 102.73 1.2L103.306 2.208C103.37 2.432 103.434 2.64 103.498 2.832C103.562 2.992 103.626 3.168 103.69 3.36C103.754 3.584 103.802 3.792 103.834 3.984C103.866 4.144 103.898 4.304 103.93 4.464C104.218 6.128 104.57 7.744 104.986 9.312C105.402 10.88 105.786 12.384 106.138 13.824C106.266 14.4 106.426 15.12 106.618 15.984C106.81 16.816 107.002 17.696 107.194 18.624C107.386 19.52 107.578 20.384 107.77 21.216C107.962 22.048 108.154 22.704 108.346 23.184C108.762 21.744 109.178 20.304 109.594 18.864C110.042 17.424 110.522 15.968 111.034 14.496C111.29 13.728 111.546 13.04 111.802 12.432C112.09 11.792 112.41 11.264 112.762 10.848C113.114 10.432 113.514 10.16 113.962 10.032C114.41 9.904 114.938 9.952 115.546 10.176C116.09 10.4 116.57 10.88 116.986 11.616C117.402 12.352 117.77 13.104 118.09 13.872C118.378 14.576 118.65 15.328 118.906 16.128C119.194 16.896 119.466 17.664 119.722 18.432C120.01 19.168 120.282 19.872 120.538 20.544C120.794 21.216 121.05 21.792 121.306 22.272C121.402 21.92 121.514 21.472 121.642 20.928C121.77 20.384 121.898 19.808 122.026 19.2C122.186 18.56 122.33 17.936 122.458 17.328C122.586 16.72 122.714 16.16 122.842 15.648C123.258 13.92 123.69 12.192 124.138 10.464C124.586 8.704 125.018 6.976 125.434 5.28L125.674 4.464C125.738 4.304 125.77 4.144 125.77 3.984C125.802 3.792 125.85 3.584 125.914 3.36C125.978 3.168 126.042 2.992 126.106 2.832C126.17 2.64 126.234 2.432 126.298 2.208C126.362 2.048 126.426 1.888 126.49 1.728C126.586 1.536 126.698 1.36 126.826 1.2C126.922 1.04 127.034 0.912001 127.162 0.816002C127.29 0.720001 127.418 0.640001 127.546 0.576002C127.994 0.320002 128.378 0.192001 128.698 0.192001C129.114 0.192001 129.514 0.256001 129.898 0.384002C130.41 0.48 130.874 0.688001 131.29 1.008C131.61 1.328 131.802 1.744 131.866 2.256Z" fill="white"/>
<path d="M75.7148 1.488C77.8588 0.688001 79.7948 0.336001 81.5228 0.432001C83.2828 0.528002 84.8508 0.976002 86.2268 1.776C87.6028 2.544 88.7708 3.584 89.7308 4.896C90.7228 6.208 91.5228 7.68 92.1308 9.312C92.6108 10.528 92.9788 11.808 93.2348 13.152C93.4908 14.496 93.6348 15.84 93.6668 17.184C93.7308 18.496 93.6828 19.792 93.5228 21.072C93.3948 22.352 93.1708 23.536 92.8508 24.624C92.6588 25.36 92.4348 26.032 92.1788 26.64C91.9228 27.248 91.6188 27.856 91.2668 28.464C90.4668 29.84 89.4268 30.96 88.1468 31.824C86.8988 32.688 85.5228 33.296 84.0188 33.648C82.9948 33.904 81.9388 34.032 80.8508 34.032C79.7628 34 78.6908 33.856 77.6348 33.6C76.5788 33.312 75.5548 32.912 74.5628 32.4C73.6028 31.856 72.7228 31.184 71.9228 30.384C70.9308 29.424 70.1148 28.32 69.4748 27.072C68.8348 25.792 68.3388 24.464 67.9868 23.088C67.6348 21.68 67.4108 20.272 67.3148 18.864C67.2188 17.456 67.2188 16.112 67.3148 14.832C67.4108 13.648 67.6348 12.384 67.9868 11.04C68.3708 9.696 68.9148 8.4 69.6188 7.152C70.3228 5.904 71.1708 4.784 72.1628 3.792C73.1868 2.768 74.3708 2 75.7148 1.488ZM86.9468 22.032C87.3308 20.528 87.4908 18.832 87.4268 16.944C87.3628 15.056 87.0588 13.28 86.5148 11.616C86.1628 10.592 85.7148 9.696 85.1708 8.928C84.6588 8.128 84.0348 7.52 83.2988 7.104C82.5948 6.688 81.7628 6.48 80.8028 6.48C79.8428 6.48 78.7708 6.768 77.5868 7.344C76.8828 7.696 76.2748 8.176 75.7628 8.784C75.2828 9.392 74.8828 10.08 74.5628 10.848C74.2748 11.616 74.0348 12.416 73.8428 13.248C73.6828 14.08 73.5868 14.88 73.5547 15.648C73.4907 16.48 73.4748 17.36 73.5068 18.288C73.5388 19.184 73.6348 20.096 73.7948 21.024C73.9868 21.92 74.2428 22.784 74.5628 23.616C74.8828 24.416 75.3148 25.136 75.8588 25.776C76.6908 26.736 77.6508 27.408 78.7388 27.792C79.8588 28.144 80.9628 28.192 82.0508 27.936C83.8108 27.552 85.1548 26.384 86.0828 24.432C86.4668 23.728 86.7548 22.928 86.9468 22.032Z" fill="white"/>
<path d="M63.3101 30.864C63.2781 31.248 63.2301 31.648 63.1661 32.064C63.1021 32.48 62.9901 32.864 62.8301 33.216C62.6701 33.6 62.4621 33.888 62.2061 34.08C61.8541 34.4 61.4381 34.576 60.9581 34.608C60.5101 34.768 60.0781 34.816 59.6621 34.752C59.2461 34.688 58.8621 34.576 58.5101 34.416C58.0621 34.128 57.7261 33.792 57.5021 33.408C57.3101 32.992 57.1661 32.56 57.0701 32.112C56.9741 31.664 56.9261 31.2 56.9261 30.72C56.9261 30.24 56.9261 29.792 56.9261 29.376V25.632L56.8781 18.288C56.8781 17.776 56.8781 17.376 56.8781 17.088C56.8781 16.8 56.8781 16.544 56.8781 16.32C56.8781 16.064 56.8621 15.792 56.8301 15.504C56.8301 15.184 56.8301 14.736 56.8301 14.16C56.8301 14.064 56.8301 13.904 56.8301 13.68C56.8621 13.424 56.8461 12.768 56.7821 11.712C55.5341 13.792 54.4941 15.472 53.6621 16.752C52.8621 18 52.1741 18.976 51.5981 19.68C51.0541 20.352 50.5741 20.816 50.1581 21.072C49.7421 21.296 49.3101 21.424 48.8621 21.456C48.6061 21.488 48.3501 21.44 48.0941 21.312C47.8381 21.184 47.5821 21.024 47.3261 20.832C47.1021 20.64 46.8781 20.448 46.6541 20.256C46.4621 20.032 46.3021 19.824 46.1741 19.632C45.4061 18.672 44.5421 17.52 43.5821 16.176C42.6221 14.832 41.6301 13.2 40.6061 11.28C40.6061 11.312 40.5901 11.84 40.5581 12.864C40.5581 13.888 40.5581 15.168 40.5581 16.704C40.5581 18.208 40.5421 19.84 40.5101 21.6C40.5101 23.328 40.4941 24.944 40.4621 26.448C40.4621 27.952 40.4461 29.216 40.4141 30.24C40.3821 31.232 40.3501 31.728 40.3181 31.728C40.3181 32.272 40.1901 32.784 39.9341 33.264C39.6781 33.712 39.3261 34.08 38.8781 34.368C38.4621 34.656 37.9661 34.816 37.3901 34.848C36.8141 34.88 36.1901 34.72 35.5181 34.368C35.1021 34.112 34.7821 33.744 34.5581 33.264C34.3661 32.784 34.2381 32.336 34.1741 31.92C34.1421 31.472 34.1101 31.04 34.0781 30.624C34.0781 30.208 34.0781 29.776 34.0781 29.328L34.1261 25.584L34.1741 18.192V11.76C34.1741 8.97599 34.2701 6.23999 34.4621 3.55199C34.4621 3.2 34.4941 2.88 34.5581 2.592C34.6541 2.272 34.7661 1.968 34.8941 1.68C35.1501 1.16799 35.4861 0.783994 35.9021 0.527993C36.3821 0.239993 36.8941 0.095993 37.4381 0.095993C37.6621 0.095993 37.8701 0.111994 38.0621 0.143995C38.2861 0.143995 38.4941 0.159995 38.6861 0.191995C39.3261 0.319995 39.8701 0.703995 40.3181 1.34399C40.7981 1.95199 41.2461 2.47999 41.6621 2.92799C41.9181 3.21599 42.1901 3.56799 42.4781 3.98399C42.7661 4.39999 43.0541 4.832 43.3421 5.27999C43.6301 5.72799 43.9021 6.16 44.1581 6.576C44.4141 6.992 44.6381 7.36 44.8301 7.68C45.6621 9.024 46.3981 10.256 47.0381 11.376C47.7101 12.496 48.3341 13.456 48.9101 14.256C49.0061 14.16 49.1181 14.032 49.2461 13.872C49.3741 13.68 49.5021 13.488 49.6301 13.296C49.7901 13.072 49.9181 12.864 50.0141 12.672C50.1421 12.48 50.2381 12.32 50.3021 12.192C50.6221 11.68 50.9421 11.184 51.2621 10.704C51.5821 10.192 51.9181 9.66399 52.2701 9.11999C52.6541 8.54399 53.0381 7.91999 53.4221 7.248C53.8381 6.57599 54.3181 5.80799 54.8621 4.94399C55.0861 4.55999 55.3741 4.09599 55.7261 3.55199C56.0781 3.00799 56.4781 2.47999 56.9261 1.96799C57.3741 1.45599 57.8381 1.02399 58.3181 0.671994C58.8301 0.287993 59.3421 0.095993 59.8541 0.095993C60.1101 0.095993 60.3341 0.111994 60.5261 0.143995C60.7181 0.143995 60.9101 0.159995 61.1021 0.191995C61.4861 0.223994 61.8541 0.399994 62.2061 0.719994C62.4621 0.975994 62.6541 1.24799 62.7821 1.53599C62.9101 1.95199 62.9901 2.304 63.0221 2.592C63.0541 2.81599 63.0701 3.02399 63.0701 3.216C63.1021 3.408 63.1181 3.59999 63.1181 3.79199C63.1181 5.58399 63.1341 7.35999 63.1661 9.11999C63.1981 10.88 63.2141 12.656 63.2141 14.448C63.2141 16.624 63.2141 18.864 63.2141 21.168C63.2461 23.472 63.2621 25.712 63.2621 27.888C63.2621 28.336 63.2781 28.816 63.3101 29.328C63.3421 29.84 63.3421 30.352 63.3101 30.864Z" fill="white"/>
<path d="M29.232 30.864C29.2 31.248 29.152 31.648 29.088 32.064C29.024 32.48 28.912 32.864 28.752 33.216C28.592 33.6 28.384 33.888 28.128 34.08C27.776 34.4 27.36 34.576 26.88 34.608C26.432 34.768 26 34.816 25.584 34.752C25.168 34.688 24.784 34.576 24.432 34.416C23.984 34.128 23.648 33.792 23.424 33.408C23.232 32.992 23.088 32.56 22.992 32.112C22.896 31.664 22.848 31.2 22.848 30.72C22.848 30.24 22.848 29.792 22.848 29.376V25.632L22.8 18.288C22.8 17.776 22.8 17.376 22.8 17.088C22.8 16.8 22.8 16.544 22.8 16.32C22.8 16.064 22.784 15.792 22.752 15.504C22.752 15.184 22.752 14.736 22.752 14.16C22.752 14.064 22.752 13.904 22.752 13.68C22.784 13.424 22.768 12.768 22.704 11.712C21.456 13.792 20.416 15.472 19.584 16.752C18.784 18 18.096 18.976 17.52 19.68C16.976 20.352 16.496 20.816 16.08 21.072C15.664 21.296 15.232 21.424 14.784 21.456C14.528 21.488 14.272 21.44 14.016 21.312C13.76 21.184 13.504 21.024 13.248 20.832C13.024 20.64 12.8 20.448 12.576 20.256C12.384 20.032 12.224 19.824 12.096 19.632C11.328 18.672 10.464 17.52 9.504 16.176C8.544 14.832 7.552 13.2 6.528 11.28C6.528 11.312 6.512 11.84 6.48 12.864C6.48 13.888 6.48 15.168 6.48 16.704C6.48 18.208 6.464 19.84 6.432 21.6C6.432 23.328 6.416 24.944 6.384 26.448C6.384 27.952 6.368 29.216 6.336 30.24C6.304 31.232 6.272 31.728 6.24 31.728C6.24 32.272 6.112 32.784 5.856 33.264C5.6 33.712 5.248 34.08 4.8 34.368C4.384 34.656 3.888 34.816 3.312 34.848C2.736 34.88 2.112 34.72 1.44 34.368C1.024 34.112 0.704 33.744 0.48 33.264C0.288 32.784 0.16 32.336 0.0960002 31.92C0.0640001 31.472 0.0319999 31.04 0 30.624C0 30.208 0 29.776 0 29.328L0.048 25.584L0.0960002 18.192V11.76C0.0960002 8.97599 0.192 6.23999 0.384 3.55199C0.384 3.2 0.416 2.88 0.48 2.592C0.576 2.272 0.688 1.968 0.816 1.68C1.072 1.16799 1.408 0.783994 1.824 0.527993C2.304 0.239993 2.816 0.095993 3.36 0.095993C3.584 0.095993 3.792 0.111994 3.984 0.143995C4.208 0.143995 4.416 0.159995 4.608 0.191995C5.248 0.319995 5.792 0.703995 6.24 1.34399C6.72 1.95199 7.168 2.47999 7.584 2.92799C7.84 3.21599 8.112 3.56799 8.4 3.98399C8.688 4.39999 8.976 4.832 9.264 5.27999C9.552 5.72799 9.824 6.16 10.08 6.576C10.336 6.992 10.56 7.36 10.752 7.68C11.584 9.024 12.32 10.256 12.96 11.376C13.632 12.496 14.256 13.456 14.832 14.256C14.928 14.16 15.04 14.032 15.168 13.872C15.296 13.68 15.424 13.488 15.552 13.296C15.712 13.072 15.84 12.864 15.936 12.672C16.064 12.48 16.16 12.32 16.224 12.192C16.544 11.68 16.864 11.184 17.184 10.704C17.504 10.192 17.84 9.66399 18.192 9.11999C18.576 8.54399 18.96 7.91999 19.344 7.248C19.76 6.57599 20.24 5.80799 20.784 4.94399C21.008 4.55999 21.296 4.09599 21.648 3.55199C22 3.00799 22.4 2.47999 22.848 1.96799C23.296 1.45599 23.76 1.02399 24.24 0.671994C24.752 0.287993 25.264 0.095993 25.776 0.095993C26.032 0.095993 26.256 0.111994 26.448 0.143995C26.64 0.143995 26.832 0.159995 27.024 0.191995C27.408 0.223994 27.776 0.399994 28.128 0.719994C28.384 0.975994 28.576 1.24799 28.704 1.53599C28.832 1.95199 28.912 2.304 28.944 2.592C28.976 2.81599 28.992 3.02399 28.992 3.216C29.024 3.408 29.04 3.59999 29.04 3.79199C29.04 5.58399 29.056 7.35999 29.088 9.11999C29.12 10.88 29.136 12.656 29.136 14.448C29.136 16.624 29.136 18.864 29.136 21.168C29.168 23.472 29.184 25.712 29.184 27.888C29.184 28.336 29.2 28.816 29.232 29.328C29.264 29.84 29.264 30.352 29.232 30.864Z" fill="white"/>
</g>
<defs>
<clipPath id="clip0_6_5">
<rect width="215" height="35" fill="white"/>
</clipPath>
</defs>
</svg>
